<svg width="1436" height="1436" viewBox="0 0 1436 1436" fill="none" xmlns="http://www.w3.org/2000/svg">
<g clip-path="url(#clip0_9_19)">
<rect width="1436" height="1436" rx="292" fill="white"/>
<path d="M47.2317 1013C-135.879 1013 -270 889.085 -270 718.5C-270 547.915 -135.879 424 47.2317 424C230.343 424 364.464 547.915 364.464 718.5C364.464 889.085 230.343 1013 47.2317 1013ZM47.2317 859.313C117.103 859.313 173.321 806.206 173.321 718.5C173.321 630.794 117.103 577.687 47.2317 577.687C-22.6396 577.687 -78.8578 630.794 -78.8578 718.5C-78.8578 806.206 -22.6396 859.313 47.2317 859.313Z" fill="#1E1E1E"/>
<path d="M728 1013C544.889 1013 410.768 889.085 410.768 718.5C410.768 547.915 544.889 424 728 424C911.111 424 1045.23 547.915 1045.23 718.5C1045.23 889.085 911.111 1013 728 1013ZM728 859.313C797.871 859.313 854.09 806.206 854.09 718.5C854.09 630.794 797.871 577.687 728 577.687C658.129 577.687 601.911 630.794 601.911 718.5C601.911 806.206 658.129 859.313 728 859.313Z" fill="#1E1E1E"/>
<path d="M1408.77 1013C1225.66 1013 1091.54 889.085 1091.54 718.5C1091.54 547.915 1225.66 424 1408.77 424C1591.88 424 1726 547.915 1726 718.5C1726 889.085 1591.88 1013 1408.77 1013ZM1408.77 859.313C1478.64 859.313 1534.86 806.206 1534.86 718.5C1534.86 630.794 1478.64 577.687 1408.77 577.687C1338.9 577.687 1282.68 630.794 1282.68 718.5C1282.68 806.206 1338.9 859.313 1408.77 859.313Z" fill="#1E1E1E"/>
</g>
<defs>
<clipPath id="clip0_9_19">
<rect width="1436" height="1436" fill="white"/>
</clipPath>
</defs>
</svg>
