<svg width="3336" height="434" viewBox="0 0 3336 434" fill="none" xmlns="http://www.w3.org/2000/svg">
<path d="M355.222 423.898L327.396 351.669H169.914L142.089 423.898H0L181.163 9.47256H318.515L499.679 423.898H355.222ZM208.397 251.023H288.914L248.655 146.825L208.397 251.023Z" fill="#1E1E1E"/>
<path d="M770.04 423.898L699.588 319.7H661.698V423.898H521.977V9.47256H721.493C836.94 9.47256 910.353 69.8602 910.353 165.77C910.353 225.566 881.935 270.561 832.204 296.018L919.233 423.898H770.04ZM769.448 165.77C769.448 135.576 751.095 117.223 712.613 117.223H661.698V214.317H712.613C751.095 214.317 769.448 195.964 769.448 165.77Z" fill="#1E1E1E"/>
<path d="M1180.39 433.37C1045.41 433.37 946.536 342.197 946.536 216.685C946.536 91.1736 1045.41 0 1180.39 0C1315.37 0 1414.24 91.1736 1414.24 216.685C1414.24 342.197 1315.37 433.37 1180.39 433.37ZM1180.39 320.292C1231.9 320.292 1273.34 281.217 1273.34 216.685C1273.34 152.153 1231.9 113.079 1180.39 113.079C1128.88 113.079 1087.44 152.153 1087.44 216.685C1087.44 281.217 1128.88 320.292 1180.39 320.292Z" fill="#1E1E1E"/>
<path d="M1682.23 433.37C1547.25 433.37 1448.38 342.197 1448.38 216.685C1448.38 91.1736 1547.25 0 1682.23 0C1817.22 0 1916.09 91.1736 1916.09 216.685C1916.09 342.197 1817.22 433.37 1682.23 433.37ZM1682.23 320.292C1733.74 320.292 1775.18 281.217 1775.18 216.685C1775.18 152.153 1733.74 113.079 1682.23 113.079C1630.73 113.079 1589.28 152.153 1589.28 216.685C1589.28 281.217 1630.73 320.292 1682.23 320.292Z" fill="#1E1E1E"/>
<path d="M2184.08 433.37C2049.09 433.37 1950.22 342.197 1950.22 216.685C1950.22 91.1736 2049.09 0 2184.08 0C2319.06 0 2417.93 91.1736 2417.93 216.685C2417.93 342.197 2319.06 433.37 2184.08 433.37ZM2184.08 320.292C2235.58 320.292 2277.03 281.217 2277.03 216.685C2277.03 152.153 2235.58 113.079 2184.08 113.079C2132.57 113.079 2091.13 152.153 2091.13 216.685C2091.13 281.217 2132.57 320.292 2184.08 320.292Z" fill="#1E1E1E"/>
<path d="M2875.73 423.898H2715.88L2644.25 313.187L2574.39 423.898H2415.13L2564.91 214.909L2420.46 9.47256H2577.35L2647.8 113.671L2716.47 9.47256H2866.85L2722.99 209.581L2875.73 423.898Z" fill="#1E1E1E"/>
<path d="M3191.1 423.898L3163.27 351.669H3005.79L2977.96 423.898H2835.88L3017.04 9.47256H3154.39L3335.55 423.898H3191.1ZM3044.27 251.023H3124.79L3084.53 146.825L3044.27 251.023Z" fill="#1E1E1E"/>
</svg>
