<svg width="1436" height="1436" viewBox="0 0 1436 1436" fill="none" xmlns="http://www.w3.org/2000/svg">
<rect width="1436" height="1436" rx="200" fill="white"/>
<path d="M336.138 879.844C239.044 879.844 168 812.352 168 717.626C168 622.9 239.044 556 336.138 556C434.416 556 504.869 622.9 504.869 717.626C504.869 812.352 434.416 879.844 336.138 879.844Z" fill="#1E1E1E"/>
<path d="M717.724 879.844C620.63 879.844 549.586 812.352 549.586 717.626C549.586 622.9 620.63 556 717.724 556C816.002 556 886.454 622.9 886.454 717.626C886.454 812.352 816.002 879.844 717.724 879.844Z" fill="#1E1E1E"/>
<path d="M1099.31 879.844C1002.22 879.844 931.172 812.352 931.172 717.626C931.172 622.9 1002.22 556 1099.31 556C1197.59 556 1268.04 622.9 1268.04 717.626C1268.04 812.352 1197.59 879.844 1099.31 879.844Z" fill="#1E1E1E"/>
</svg>
