<svg width="249" height="53" viewBox="0 0 249 53" fill="none" xmlns="http://www.w3.org/2000/svg">
<path d="M49.1111 33.0622L47.6646 47.5957C45.5293 48.9733 39.8123 52.8994 29.5493 52.8994C13.2938 52.8994 9.12235e-05 42.6364 9.12235e-05 27.5518C9.12235e-05 12.4673 12.605 0.344498 29.756 0.344498C37.8148 0.344498 42.7742 1.51545 47.3891 2.54864L48.8355 16.2556L47.6646 16.6C39.8812 6.54364 35.9551 2.75528 29.4116 2.75528C19.0108 2.75528 15.8423 12.6739 15.8423 27.5518C15.8423 42.4298 21.2149 50.4887 29.4116 50.4887C37.1261 50.4887 41.3277 43.6007 47.9401 32.7867L49.1111 33.0622ZM73.7774 51.6596V51.7974H53.5269V51.6596C55.4555 46.4248 56.3509 43.463 56.3509 36.1618V17.0133C56.3509 9.71209 55.4555 6.75028 53.5269 1.51545V1.37769H77.2902C93.2702 1.37769 98.1607 6.40588 98.1607 13.9826C98.1607 19.4241 95.8877 24.4523 89.6196 27.3452L96.5076 41.5343C98.7806 46.287 100.296 49.2488 104.222 51.6596V51.7974H85.3491L75.155 29.6871H71.0222V36.2306C71.0222 43.2563 71.9176 46.4248 73.7774 51.6596ZM73.5019 3.71959C72.8131 3.71959 71.9176 3.78847 71.0222 3.78847V27.2074H73.9152C81.1475 27.2074 83.145 20.3195 83.145 14.327C83.145 8.74778 81.0097 3.71959 73.5019 3.71959ZM144.542 51.7974V51.6596C146.677 46.1493 147.71 42.9808 147.71 35.2663V12.3984L131.386 50.282H128.424L111.893 12.4673L112.1 35.3352C112.168 42.7742 114.441 46.1493 118.988 51.6596V51.7974H103.627V51.6596C107.347 46.1493 109.138 42.9808 109.138 35.2663V15.7046C109.138 8.95442 107.347 6.337 103.627 1.51545V1.37769H122.707L136.07 32.4423L149.432 1.37769H167.754V1.51545C164.103 6.337 162.382 8.95442 162.382 15.7046V35.3352C162.382 42.7742 163.415 46.1493 165.481 51.6596V51.7974H144.542ZM205.799 51.7974H183.551V51.6596C186.651 47.8024 187.339 45.5982 187.339 40.4323V12.605H181.278V11.4341C188.442 8.6789 195.123 5.30381 200.909 0.00010216H201.942V40.4323C201.942 45.736 202.631 47.8024 205.799 51.6596V51.7974ZM228.602 51.7974H214.275C219.648 36.575 229.635 23.7635 239.347 13.5693H211.038L213.931 1.37769H248.164V2.06648C240.311 14.9469 231.908 31.6157 228.602 51.7974Z" fill="black"/>
</svg>
