<svg width="2156" height="589" viewBox="0 0 2156 589" fill="none" xmlns="http://www.w3.org/2000/svg">
<path d="M317.232 589C134.121 589 0 465.085 0 294.5C0 123.915 134.121 0 317.232 0C500.343 0 634.464 123.915 634.464 294.5C634.464 465.085 500.343 589 317.232 589ZM317.232 435.313C387.103 435.313 443.321 382.206 443.321 294.5C443.321 206.794 387.103 153.687 317.232 153.687C247.36 153.687 191.142 206.794 191.142 294.5C191.142 382.206 247.36 435.313 317.232 435.313Z" fill="#F09C22"/>
<path d="M1838.77 589C1655.66 589 1521.54 465.085 1521.54 294.5C1521.54 123.915 1655.66 0 1838.77 0C2021.88 0 2156 123.915 2156 294.5C2156 465.085 2021.88 589 1838.77 589ZM1838.77 435.313C1908.64 435.313 1964.86 382.206 1964.86 294.5C1964.86 206.794 1908.64 153.687 1838.77 153.687C1768.9 153.687 1712.68 206.794 1712.68 294.5C1712.68 382.206 1768.9 435.313 1838.77 435.313Z" fill="#F09C22"/>
<path d="M1078 589C894.889 589 760.769 465.085 760.769 294.5C760.769 123.915 894.889 0 1078 0C1261.11 0 1395.23 123.915 1395.23 294.5C1395.23 465.085 1261.11 589 1078 589ZM1078 435.313C1147.87 435.313 1204.09 382.206 1204.09 294.5C1204.09 206.794 1147.87 153.687 1078 153.687C1008.13 153.687 951.911 206.794 951.911 294.5C951.911 382.206 1008.13 435.313 1078 435.313Z" fill="#F09C22"/>
</svg>
