<svg width="72" height="53" viewBox="0 0 72 53" fill="none" xmlns="http://www.w3.org/2000/svg">
<path d="M37.5003 47.96C37.5003 48.2067 37.4555 48.4421 37.3658 48.6663C37.2761 48.8905 37.1752 49.1148 37.0631 49.339C36.8389 49.765 36.6259 50.1013 36.4241 50.348C36.2447 50.5946 36.0541 50.774 35.8523 50.8861C35.6506 51.0206 35.4263 51.0991 35.1797 51.1215C34.9555 51.1663 34.6864 51.1888 34.3725 51.1888H33.229C33.0496 51.256 32.8815 51.2897 32.7245 51.2897C32.5227 51.2897 32.3882 51.2 32.3209 51.0206C32.2761 50.8636 32.2537 50.6843 32.2537 50.4825C32.2537 50.3704 32.2537 50.2695 32.2537 50.1798C32.2761 50.0677 32.2873 49.978 32.2873 49.9107C32.2873 49.7314 32.2537 49.5744 32.1864 49.4399C32.1416 49.3053 32.0182 49.2381 31.8165 49.2381C31.4801 49.2381 31.2111 49.339 31.0093 49.5408C30.8299 49.7201 30.6505 49.9219 30.4712 50.1462C30.3142 50.3704 30.1348 50.5722 29.933 50.7515C29.7312 50.9533 29.4398 51.0542 29.0586 51.0542C28.6102 51.0542 28.1617 50.987 27.7133 50.8524C27.2873 50.7179 26.8501 50.6282 26.4016 50.5834C25.4823 50.5161 24.563 50.4713 23.6438 50.4488C22.7245 50.4264 21.8052 50.404 20.8859 50.3816C19.989 50.3367 19.0809 50.2695 18.1617 50.1798C17.2648 50.0901 16.3679 49.9444 15.4711 49.7426C15.2693 49.6977 15.0675 49.6641 14.8657 49.6417C14.6639 49.6192 14.4733 49.608 14.2939 49.608C13.3746 49.608 12.4666 49.7089 11.5697 49.9107C10.6952 50.0901 9.7087 50.1798 8.61004 50.1798C7.87012 50.1798 7.13021 50.2583 6.39029 50.4152C5.65038 50.5722 4.91046 50.6506 4.17055 50.6506C3.8118 50.6506 3.397 50.5834 2.92614 50.4488C2.45529 50.2919 1.99565 50.0901 1.54721 49.8435C1.1212 49.5968 0.751244 49.2941 0.437341 48.9354C0.145859 48.5766 0.000118494 48.1955 0.000118494 47.7919C0.000118494 47.5004 0.134648 47.1977 0.403708 46.8838C0.69519 46.5475 1.03151 46.2336 1.41268 45.9421C1.79385 45.6282 2.17502 45.3479 2.55619 45.1013C2.95978 44.8322 3.27368 44.6192 3.4979 44.4623C4.86562 44.6416 6.23334 44.8434 7.60106 45.0677C8.96878 45.2919 10.3477 45.404 11.7379 45.404C12.5899 45.404 13.2625 45.3031 13.7558 45.1013C14.2715 44.8771 14.6527 44.5856 14.8993 44.2268C15.1684 43.8457 15.3365 43.4084 15.4038 42.9152C15.4935 42.3995 15.5383 41.8501 15.5383 41.2672C15.5383 40.9309 15.5271 40.5945 15.5047 40.2582C15.5047 39.9219 15.5047 39.5631 15.5047 39.182C15.5047 35.6842 15.5944 32.2088 15.7738 28.7559C15.9755 25.2805 16.0764 21.794 16.0764 18.2962C16.0764 16.5697 16.0316 14.8545 15.9419 13.1504C15.8747 11.4464 15.7177 9.74233 15.4711 8.03828C15.1572 7.97102 14.8545 7.90375 14.563 7.83649C14.2939 7.76922 13.9688 7.73559 13.5876 7.73559C13.4755 7.73559 13.4195 7.7468 13.4195 7.76922C13.3298 7.67954 13.2177 7.63469 13.0832 7.63469C12.971 7.61227 12.8589 7.60106 12.7468 7.60106C12.2311 7.60106 11.7379 7.67954 11.267 7.83649C10.7961 7.97102 10.3141 8.03828 9.8208 8.03828C9.68627 8.03828 9.57417 8.01586 9.48448 7.97102C9.41721 7.92617 9.33874 7.87012 9.24905 7.80285C9.18179 7.73559 9.0921 7.67954 8.97999 7.63469C8.89031 7.58985 8.76699 7.56743 8.61004 7.56743C7.87012 7.56743 7.13021 7.6459 6.39029 7.80285C5.65038 7.95981 4.89925 8.03828 4.13691 8.03828C3.59879 8.03828 3.06067 7.95981 2.52256 7.80285C2.00686 7.6459 1.536 7.39926 1.10999 7.06294C1.26694 6.72662 1.34542 6.32303 1.34542 5.85217C1.34542 5.49342 1.31179 5.14589 1.24452 4.80956C1.17726 4.45082 1.13241 4.09207 1.10999 3.73332C1.26694 3.80059 1.4351 3.83422 1.61448 3.83422C1.9508 3.83422 2.26471 3.75575 2.55619 3.59879C2.87009 3.41942 3.17278 3.22884 3.46426 3.02704C3.75575 2.80282 4.05844 2.61224 4.37234 2.45529C4.68625 2.27592 5.01136 2.18623 5.34768 2.18623C6.02033 2.18623 6.68177 2.28713 7.332 2.48892C8.00465 2.69072 8.6773 2.79161 9.34995 2.79161C9.73112 2.79161 10.0562 2.72435 10.3253 2.58982C10.5944 2.43287 10.8298 2.35439 11.0316 2.35439C11.2558 2.35439 11.424 2.42166 11.5361 2.55619C11.6706 2.69072 11.8612 2.75798 12.1078 2.75798C12.4666 2.75798 12.8253 2.69072 13.1841 2.55619C13.5652 2.42166 13.9352 2.28713 14.2939 2.1526C14.6527 1.99565 15.0226 1.8499 15.4038 1.71537C15.785 1.58084 16.1773 1.51358 16.5809 1.51358C17.1415 1.51358 17.6908 1.58084 18.2289 1.71537C18.7895 1.8499 19.3388 1.91717 19.8769 1.91717C20.1684 1.91717 20.4487 1.88354 20.7177 1.81627H20.7514C20.7065 1.92838 20.6841 2.10775 20.6841 2.35439C20.6841 2.6683 20.7289 2.94857 20.8186 3.1952C20.9307 3.44184 21.0428 3.69969 21.155 3.96875C21.2895 4.23781 21.4016 4.56293 21.4913 4.94409C21.6034 5.32526 21.6594 5.80733 21.6594 6.39029C21.6594 7.39926 21.6819 8.39703 21.7267 9.38358C21.7715 10.3477 21.794 11.3343 21.794 12.3432C21.794 12.8589 21.7491 13.3634 21.6594 13.8567C21.5922 14.3276 21.4464 14.7872 21.2222 15.2356C21.424 15.415 21.5473 15.628 21.5922 15.8747C21.6594 16.0989 21.6931 16.3455 21.6931 16.6146V17.1527C21.6931 17.3993 21.7155 17.6572 21.7603 17.9262C21.8276 18.1953 21.9733 18.4195 22.1976 18.5989L22.2312 18.9688C22.2312 19.2603 22.1751 19.5182 22.063 19.7424C21.9733 19.9666 21.8724 20.1796 21.7603 20.3814C21.6482 20.5832 21.5361 20.785 21.424 20.9868C21.3343 21.1886 21.2895 21.4128 21.2895 21.6594C21.2895 22.1751 21.3567 22.702 21.4913 23.2402C21.6482 23.7559 21.7267 24.3052 21.7267 24.8882C21.7267 25.6057 21.6819 26.3231 21.5922 27.0406C21.5025 27.7357 21.4016 28.442 21.2895 29.1595C21.1774 29.8546 21.0765 30.5608 20.9868 31.2783C20.8971 31.9734 20.8523 32.6797 20.8523 33.3972C20.8523 33.5766 20.8186 33.7223 20.7514 33.8344C20.7065 33.9465 20.628 34.0026 20.5159 34.0026C20.4935 34.0026 20.415 33.9801 20.2805 33.9353C20.2805 34.5183 20.3254 35.1012 20.415 35.6842C20.5047 36.2671 20.5944 36.8501 20.6841 37.4331C20.7962 37.9936 20.8971 38.5654 20.9868 39.1483C21.0765 39.7313 21.1213 40.3255 21.1213 40.9309V41.4017L21.0877 41.8726C21.0877 43.0609 21.4801 43.9354 22.2648 44.4959C23.0496 45.0564 24.0137 45.3367 25.1572 45.3367C25.9196 45.3367 26.4913 45.2694 26.8725 45.1349C27.2761 44.978 27.5675 44.8098 27.7469 44.6304C27.9487 44.4511 28.1057 44.2941 28.2178 44.1596C28.3299 44.0026 28.498 43.9241 28.7223 43.9241C29.3725 43.9241 30.0339 44.0026 30.7066 44.1596C31.4017 44.2941 32.0743 44.395 32.7245 44.4623C33.0609 44.5071 33.3972 44.5295 33.7335 44.5295C34.0698 44.5295 34.3949 44.5632 34.7088 44.6304C35.0227 44.6753 35.3142 44.765 35.5833 44.8995C35.8523 45.034 36.099 45.2694 36.3232 45.6058C36.5474 45.9421 36.7941 46.3121 37.0631 46.7156C37.3546 47.1192 37.5003 47.534 37.5003 47.96ZM71.8405 3.66606C71.818 3.84543 71.8068 4.1257 71.8068 4.50687C71.8068 4.86562 71.7956 5.26921 71.7732 5.71764C71.7508 6.14365 71.7059 6.59209 71.6387 7.06294C71.5714 7.51137 71.4817 7.92617 71.3696 8.30734C71.2575 8.68851 71.1005 9.00241 70.8987 9.24905C70.7194 9.47327 70.4952 9.58538 70.2261 9.58538C70.1813 9.58538 70.1476 9.58538 70.1252 9.58538C70.1028 9.56295 70.0804 9.55174 70.0579 9.55174C70.0131 9.93291 69.8898 10.4038 69.688 10.9643C69.4862 11.5248 69.2283 12.1302 68.9144 12.7805C68.6005 13.4307 68.253 14.0921 67.8718 14.7648C67.4907 15.415 67.0983 16.0428 66.6947 16.6482C66.3135 17.2536 65.9324 17.7917 65.5512 18.2626C65.17 18.7334 64.8449 19.0922 64.5758 19.3388C64.3068 19.5854 64.0377 19.9778 63.7687 20.5159C63.522 21.0541 63.2642 21.6482 62.9951 22.2985C62.7261 22.9263 62.4458 23.5653 62.1543 24.2155C61.8852 24.8433 61.5938 25.359 61.2799 25.7626C61.0108 26.0989 60.7417 26.5474 60.4727 27.1079C60.226 27.646 60.0803 28.1393 60.0355 28.5877L60.1364 28.9241C60.0915 29.2604 59.9794 29.507 59.8 29.664C59.6207 29.7985 59.4189 29.9442 59.1946 30.1012C58.9704 30.2581 58.7686 30.4599 58.5893 30.7066C58.4323 30.9532 58.3538 31.3456 58.3538 31.8837C58.3538 32.0855 58.309 32.2649 58.2193 32.4218C58.1296 32.5788 58.0287 32.7245 57.9166 32.8591C57.8269 32.9712 57.7372 33.0945 57.6475 33.229C57.5803 33.3411 57.5467 33.4757 57.5467 33.6326C57.5467 33.9465 57.5915 34.2492 57.6812 34.5407C57.7933 34.8322 57.8493 35.1349 57.8493 35.4488C57.8493 36.099 57.7933 36.7268 57.6812 37.3322C57.5691 37.9376 57.513 38.5542 57.513 39.182C57.513 39.6304 57.4458 40.0452 57.3112 40.4264C57.1767 40.8075 57.0197 41.1775 56.8404 41.5362C56.661 41.895 56.4592 42.2537 56.235 42.6125C56.0332 42.9712 55.865 43.3524 55.7305 43.756C55.6184 44.0699 55.4951 44.3389 55.3605 44.5632C55.226 44.7874 55.013 44.9892 54.7215 45.1685C54.7664 45.3255 54.8112 45.4825 54.8561 45.6394C54.9009 45.7739 54.9233 45.9309 54.9233 46.1103C54.9233 46.3121 54.8785 46.5923 54.7888 46.9511C54.6991 47.3098 54.5758 47.6574 54.4188 47.9937C54.2619 48.33 54.0713 48.6327 53.8471 48.9018C53.6229 49.1484 53.3762 49.2717 53.1072 49.2717C53.0175 49.2717 52.9502 49.2605 52.9054 49.2381C52.9951 49.395 53.0511 49.5632 53.0735 49.7426C53.096 49.8995 53.1072 50.0677 53.1072 50.2471C53.1072 50.6282 53.0735 51.0094 53.0063 51.3906C52.939 51.7717 52.9054 52.1529 52.9054 52.5341V52.8368H52.6027C51.2798 52.8368 50.3269 52.5116 49.7439 51.8614C49.1834 51.2112 48.9031 50.2358 48.9031 48.9354C48.9031 47.9713 48.9816 47.0295 49.1385 46.1103C49.3179 45.1685 49.4076 44.2156 49.4076 43.2515C49.4076 42.9376 49.3179 42.6461 49.1385 42.3771C48.9816 42.108 48.9031 41.8165 48.9031 41.5026C48.9031 41.3905 48.9255 41.3008 48.9704 41.2335C49.0376 41.1663 49.1161 41.0878 49.2058 40.9981C49.5197 40.7291 49.7439 40.4152 49.8784 40.0564C50.013 39.6977 50.1363 39.3389 50.2484 38.9802C50.3829 38.6214 50.5399 38.3075 50.7193 38.0385C50.8986 37.7694 51.1789 37.59 51.5601 37.5003V37.2649C51.5601 37.0407 51.5152 36.8389 51.4255 36.6595C51.3359 36.4577 51.291 36.2447 51.291 36.0205C51.291 35.7963 51.3583 35.5945 51.4928 35.4151C51.6273 35.2358 51.7507 35.0564 51.8628 34.877C51.9973 34.6752 52.1655 34.3053 52.3672 33.7671C52.569 33.2066 52.7708 32.6461 52.9726 32.0855C53.1968 31.5025 53.3986 30.9756 53.578 30.5048C53.7798 30.0339 53.948 29.7649 54.0825 29.6976C54.5085 29.4734 54.7888 29.1931 54.9233 28.8568C55.0578 28.498 55.1475 28.1393 55.1924 27.7806C55.2596 27.4218 55.3381 27.0855 55.4278 26.7716C55.5175 26.4353 55.7305 26.1774 56.0668 25.998C56.3359 25.8635 56.5265 25.6617 56.6386 25.3926C56.7731 25.1012 56.874 24.7985 56.9413 24.4846C57.0085 24.1482 57.0646 23.8231 57.1094 23.5092C57.1767 23.1729 57.2776 22.8814 57.4121 22.6348C57.5242 22.433 57.6588 22.2648 57.8157 22.1303C57.9951 21.9733 58.1632 21.8276 58.3202 21.6931C58.4771 21.5585 58.6117 21.4128 58.7238 21.2558C58.8359 21.0989 58.892 20.8971 58.892 20.6505V20.4487C59.0713 20.3141 59.2283 20.1684 59.3628 20.0114C59.4973 19.8545 59.5982 19.6751 59.6655 19.4733C59.7552 19.137 59.8785 18.8343 60.0355 18.5653C60.2148 18.2962 60.3942 18.0383 60.5736 17.7917C60.7754 17.5451 60.9547 17.2872 61.1117 17.0182C61.2911 16.7491 61.4368 16.4576 61.5489 16.1437C61.6386 15.8747 61.8292 15.4599 62.1207 14.8993C62.4346 14.3388 62.7597 13.7782 63.096 13.2177C63.4323 12.6347 63.735 12.1078 64.0041 11.637C64.2731 11.1661 64.4077 10.8858 64.4077 10.7961C64.4077 10.5719 64.3068 10.3926 64.105 10.258C63.9256 10.1235 63.7126 10.0226 63.466 9.95533C63.2193 9.88807 62.9615 9.85444 62.6924 9.85444C62.4234 9.83201 62.2104 9.8208 62.0534 9.8208C61.4929 9.8208 60.9435 9.86565 60.4054 9.95533C59.8673 10.0226 59.318 10.0562 58.7574 10.0562C57.8381 10.0562 56.874 9.93291 55.865 9.68627C54.8561 9.41721 54.0265 8.91273 53.3762 8.17281C53.1744 8.2625 52.9726 8.31855 52.7708 8.34097C52.569 8.3634 52.3672 8.37461 52.1655 8.37461C51.6946 8.37461 51.235 8.31855 50.7865 8.20644C50.3605 8.09434 49.9233 7.97102 49.4749 7.83649C49.0264 7.70196 48.578 7.57864 48.1296 7.46653C47.7035 7.35442 47.2551 7.29837 46.7843 7.29837C46.3358 7.29837 45.8538 7.37684 45.3381 7.53379C44.8448 7.69075 44.3739 7.91496 43.9255 8.20644C43.4995 8.49793 43.1183 8.83425 42.782 9.21542C42.4681 9.59659 42.2551 10.0226 42.143 10.4935C42.0309 10.9419 41.8851 11.3679 41.7057 11.7715C41.5264 12.1527 41.3246 12.5338 41.1004 12.915C40.8986 13.2962 40.6856 13.6773 40.4613 14.0585C40.2596 14.4397 40.0914 14.832 39.9569 15.2356C39.8223 15.572 39.6205 15.8971 39.3515 16.211C39.0824 16.5025 38.7685 16.7603 38.4098 16.9845C38.0734 17.1863 37.7147 17.3545 37.3335 17.489C36.9524 17.6011 36.5824 17.6572 36.2237 17.6572C35.5062 17.0518 35.1474 16.3231 35.1474 15.4711C35.1474 14.9554 35.1698 14.4621 35.2147 13.9912C35.2819 13.498 35.3156 12.9935 35.3156 12.4778C35.3156 12.1863 35.3828 11.9172 35.5174 11.6706C35.6743 11.424 35.8537 11.1885 36.0555 10.9643C36.2573 10.7401 36.4591 10.5159 36.6609 10.2917C36.8627 10.0674 37.0196 9.8208 37.1317 9.55174C37.2663 9.23784 37.3672 8.87909 37.4344 8.4755C37.5017 8.07191 37.5577 7.65711 37.6026 7.2311C37.6474 6.78267 37.6699 6.35666 37.6699 5.95307C37.6923 5.52706 37.7035 5.14589 37.7035 4.80956C37.7035 4.38355 37.6923 3.96875 37.6699 3.56516C37.6699 3.13915 37.6362 2.72435 37.569 2.32076C37.9053 2.32076 38.1407 2.28713 38.2752 2.21986C38.4322 2.13018 38.5443 2.04049 38.6116 1.9508C38.7012 1.83869 38.7685 1.7378 38.8134 1.64811C38.8806 1.55842 38.9927 1.51358 39.1497 1.51358C39.486 1.51358 39.8223 1.60327 40.1587 1.78264C40.5174 1.93959 40.8761 2.11896 41.2349 2.32076C41.5936 2.50013 41.9636 2.67951 42.3448 2.85888C42.7259 3.01583 43.1183 3.09431 43.5219 3.09431C44.06 3.09431 44.5309 2.9822 44.9345 2.75798C45.3605 2.51134 45.7865 2.24228 46.2125 1.9508C46.6385 1.65932 47.0982 1.40147 47.5914 1.17725C48.1071 0.930617 48.7349 0.807297 49.4749 0.807297C49.7215 0.807297 49.9345 0.773665 50.1139 0.7064C50.3157 0.616713 50.495 0.527027 50.652 0.43734C50.8089 0.325232 50.9659 0.224334 51.1228 0.134648C51.2798 0.044961 51.4592 0.000117719 51.661 0.000117719C51.8852 0.000117719 52.0533 0.0898044 52.1655 0.269178C52.3 0.426129 52.4794 0.504605 52.7036 0.504605C52.9054 0.504605 53.096 0.459762 53.2753 0.370075C53.4771 0.257967 53.6789 0.201913 53.8807 0.201913C54.1498 0.201913 54.643 0.347653 55.3605 0.639135C56.1005 0.930617 56.874 1.27815 57.6812 1.68174C58.5108 2.06291 59.2843 2.44408 60.0018 2.82525C60.7193 3.20641 61.2126 3.48669 61.4817 3.66606C62.1319 3.66606 62.7709 3.57637 63.3987 3.397C64.0265 3.1952 64.6543 2.9822 65.2821 2.75798C65.9099 2.51134 66.5489 2.29834 67.1992 2.11896C67.8494 1.91717 68.5108 1.81627 69.1835 1.81627C69.744 1.81627 70.1252 1.89475 70.327 2.0517C70.5512 2.20865 70.7082 2.38802 70.7979 2.58982C70.91 2.79161 71.0109 3.00462 71.1005 3.22884C71.2127 3.43063 71.4593 3.57637 71.8405 3.66606Z" fill="black"/>
</svg>
