<svg width="218" height="53" viewBox="0 0 218 53" fill="none" xmlns="http://www.w3.org/2000/svg">
<path d="M33.3298 32.5564C33.3298 33.0048 33.3074 33.4644 33.2625 33.9353C33.2401 34.3837 33.1729 34.8322 33.0608 35.2806C32.9711 35.6618 32.8477 36.0205 32.6908 36.3568C32.5563 36.6707 32.4666 37.0183 32.4217 37.3994C32.3769 37.6237 32.332 37.8703 32.2872 38.1394C32.2424 38.386 32.0742 38.5093 31.7827 38.5093L31.5137 38.4757C31.1549 38.4757 30.8859 38.6214 30.7065 38.9129C30.5271 39.182 30.3814 39.5183 30.2693 39.9219C30.1796 40.303 30.1011 40.6954 30.0338 41.099C29.989 41.5026 29.9329 41.8277 29.8657 42.0744C29.7984 42.321 29.7536 42.5452 29.7311 42.747C29.7311 42.9264 29.7199 43.0945 29.6975 43.2515C29.6975 43.386 29.6527 43.5318 29.563 43.6887C29.4733 43.8457 29.3163 44.0138 29.0921 44.1932C28.7334 44.4623 28.3858 44.7201 28.0495 44.9668C27.7132 45.2134 27.4105 45.5049 27.1414 45.8412C26.9396 46.0878 26.8051 46.3008 26.7378 46.4802C26.6706 46.6596 26.6033 46.8278 26.5361 46.9847C26.4688 47.1417 26.3567 47.2874 26.1997 47.4219C26.0652 47.534 25.8298 47.6461 25.4934 47.7582C24.9777 47.9376 24.4845 48.1394 24.0136 48.3636C23.5428 48.5879 23.0607 48.7896 22.5674 48.969C21.9845 49.1932 21.4351 49.4511 20.9194 49.7426C20.4037 50.0116 19.8768 50.2695 19.3387 50.5161C18.8006 50.7628 18.24 50.9645 17.6571 51.1215C17.0965 51.3009 16.4911 51.3906 15.8409 51.3906C15.258 51.3906 14.675 51.3009 14.092 51.1215C13.5315 50.9421 13.0046 50.6955 12.5113 50.3816C12.0404 50.3367 11.6817 50.1686 11.4351 49.8771C11.1884 49.5856 10.9866 49.2381 10.8297 48.8345C10.6951 48.5206 10.5606 48.2964 10.4261 48.1618C10.314 48.0273 10.1795 47.9376 10.0225 47.8928C9.88797 47.8255 9.73102 47.7695 9.55164 47.7246C9.37227 47.6798 9.15927 47.5789 8.91263 47.4219C7.90365 46.7717 6.98436 45.9645 6.15476 45.0004C5.32516 44.0138 4.55161 43.0273 3.83412 42.0407C3.67717 41.8165 3.55385 41.5587 3.46416 41.2672C3.3969 40.9533 3.32963 40.6506 3.26237 40.3591C3.1951 40.0452 3.11663 39.7537 3.02694 39.4847C2.95968 39.1932 2.84757 38.969 2.69062 38.812C2.39914 38.5205 2.14129 38.3636 1.91707 38.3412C1.69285 38.3187 1.50227 38.2739 1.34532 38.2066C1.21079 38.1169 1.09868 37.9264 1.00899 37.6349C0.941728 37.321 0.908095 36.7492 0.908095 35.9196C0.908095 35.4039 0.863252 34.8658 0.773565 34.3053C0.683878 33.7447 0.57177 33.173 0.43724 32.59C0.325132 31.9846 0.224234 31.3792 0.134548 30.7738C0.0448612 30.146 1.79112e-05 29.5294 1.79112e-05 28.9241C1.79112e-05 28.2738 0.0336504 27.6236 0.100915 26.9734C0.190602 26.3231 0.291499 25.6729 0.403608 25.0227C0.515716 24.3725 0.627824 23.7334 0.739933 23.1056C0.852041 22.4554 0.930517 21.8052 0.97536 21.155C1.0202 20.5496 1.04263 19.933 1.04263 19.3052C1.06505 18.6774 1.08747 18.0496 1.10989 17.4217C1.15473 16.7939 1.222 16.1773 1.31168 15.572C1.40137 14.9666 1.55832 14.3724 1.78254 13.7894C2.00676 13.1616 2.28703 12.5675 2.62335 12.0069C2.9821 11.4464 3.32963 10.8858 3.66596 10.3253C4.00228 9.76475 4.31619 9.193 4.60767 8.61003C4.89915 8.02707 5.12337 7.39926 5.28032 6.72662C5.37001 6.3006 5.65028 5.90822 6.12113 5.54948C6.59199 5.16831 7.17495 4.82077 7.87002 4.50687C8.56509 4.17055 9.31622 3.87906 10.1234 3.63243C10.953 3.36337 11.7714 3.13915 12.5786 2.95978C13.3857 2.75798 14.1257 2.61224 14.7983 2.52255C15.4934 2.41045 16.0539 2.35439 16.4799 2.35439C17.601 2.35439 18.6548 2.50013 19.6414 2.79161C20.6279 3.06067 21.6257 3.41942 22.6347 3.86785C23.0831 4.06965 23.5652 4.23781 24.0809 4.37234C24.619 4.48445 25.1235 4.5405 25.5943 4.5405C26.0652 4.5405 26.4127 4.46203 26.6369 4.30508C26.8836 4.1257 27.0742 3.92391 27.2087 3.69969C27.3432 3.45305 27.4553 3.22884 27.545 3.02704C27.6347 2.80282 27.7692 2.63466 27.9486 2.52255L27.8477 2.55619C27.8926 2.51134 27.971 2.48892 28.0831 2.48892C28.1953 2.4665 28.3186 2.45529 28.4531 2.45529C28.6325 2.47771 28.8455 2.52255 29.0921 2.58982C29.3612 2.65708 29.6302 2.73556 29.8993 2.82525C30.1684 2.91493 30.415 3.01583 30.6392 3.12794C30.8859 3.21763 31.0652 3.30731 31.1773 3.397C31.2446 3.44184 31.3567 3.58758 31.5137 3.83422C31.6706 4.08086 31.8276 4.34992 31.9845 4.6414C32.1639 4.93288 32.3096 5.20194 32.4217 5.44858C32.5563 5.69522 32.6235 5.85217 32.6235 5.91944C32.6235 6.47998 32.702 7.00689 32.859 7.50016C33.0383 7.99344 33.128 8.52035 33.128 9.08089C33.128 9.66385 33.0383 10.2356 32.859 10.7961C32.702 11.3567 32.6235 11.9284 32.6235 12.5114C32.6235 13.2289 32.6347 13.9352 32.6572 14.6302C32.702 15.3029 32.7244 15.998 32.7244 16.7155C32.7244 17.3657 32.6908 18.0159 32.6235 18.6661C32.5787 19.294 32.489 19.9218 32.3545 20.5496C32.3096 20.7289 32.2648 20.9419 32.2199 21.1886C32.1751 21.4352 32.1078 21.6707 32.0181 21.8949C31.9509 22.1191 31.85 22.3097 31.7155 22.4666C31.6033 22.6236 31.4464 22.702 31.2446 22.702C31.0428 22.702 30.8634 22.6684 30.7065 22.6011C30.5944 22.6236 30.4935 22.646 30.4038 22.6684C30.3141 22.6684 30.2132 22.6684 30.1011 22.6684C29.8993 22.6684 29.776 22.6348 29.7311 22.5675C29.6863 22.5003 29.6639 22.4218 29.6639 22.3321C29.6639 22.22 29.6414 22.1079 29.5966 21.9958C29.5742 21.8612 29.4621 21.7379 29.2603 21.6258C29.1258 21.5361 28.9464 21.4801 28.7222 21.4576C28.4979 21.4352 28.2737 21.4128 28.0495 21.3904C27.8477 21.3455 27.6683 21.2783 27.5114 21.1886C27.3544 21.0765 27.276 20.9083 27.276 20.6841C27.276 20.4375 27.3208 20.3141 27.4105 20.3141C27.5226 20.2917 27.6459 20.3254 27.7805 20.415C27.9374 20.5047 28.1056 20.5944 28.2849 20.6841C28.4643 20.7514 28.6325 20.7514 28.7894 20.6841C28.4755 20.3254 28.1953 19.9554 27.9486 19.5742C27.7244 19.1706 27.489 18.767 27.2423 18.3635C27.0181 17.9599 26.7827 17.5563 26.5361 17.1527C26.2894 16.7491 26.0091 16.3791 25.6952 16.0428C25.4262 15.7513 25.202 15.415 25.0226 15.0338C24.8432 14.6527 24.6638 14.2715 24.4845 13.8903C24.3275 13.4867 24.1481 13.1168 23.9463 12.7805C23.767 12.4217 23.5315 12.1302 23.2401 11.906C22.2087 11.1213 21.0652 10.4374 19.8096 9.85444C18.5764 9.24905 17.2871 8.94636 15.9418 8.94636C15.0001 8.94636 14.1257 9.0921 13.3185 9.38358C12.5337 9.65264 11.749 10.0226 10.9642 10.4935C10.6503 10.6728 10.3476 10.8298 10.0561 10.9643C9.78707 11.0988 9.51801 11.2558 9.24895 11.4352C9.00231 11.5921 8.7781 11.7939 8.5763 12.0405C8.39693 12.2648 8.2624 12.5787 8.17271 12.9823C8.0606 13.3858 8.00455 13.8006 8.00455 14.2267C8.02697 14.6527 7.92607 15.0451 7.70186 15.4038C7.58975 15.5832 7.41038 15.7289 7.16374 15.841C6.93952 15.9531 6.79378 16.1213 6.72652 16.3455C6.54714 16.8612 6.43503 17.3993 6.39019 17.9599C6.36777 18.5204 6.34535 19.0922 6.32293 19.6751C6.32293 20.2581 6.31171 20.8523 6.28929 21.4576C6.26687 22.0406 6.17718 22.6011 6.02023 23.1393C5.8857 23.5877 5.78481 24.0361 5.71754 24.4846C5.6727 24.933 5.65028 25.3814 5.65028 25.8299C5.65028 26.6819 5.6727 27.5227 5.71754 28.3523C5.78481 29.1595 5.81844 29.9779 5.81844 30.8075C5.81844 31.8165 5.86328 32.803 5.95297 33.7671C6.06508 34.7313 6.25566 35.6954 6.52472 36.6595C6.72652 37.377 7.00679 38.0721 7.36553 38.7447C7.72428 39.395 7.99334 40.0788 8.17271 40.7963C8.2624 41.1775 8.41935 41.5811 8.64357 42.0071C8.89021 42.4331 9.17048 42.8255 9.48438 43.1842C9.8207 43.543 10.1907 43.8457 10.5943 44.0923C10.9978 44.3165 11.4126 44.4286 11.8387 44.4286C12.1526 44.4286 12.4552 44.395 12.7467 44.3277C13.0382 44.238 13.3409 44.1932 13.6548 44.1932C13.9911 44.1932 14.3275 44.2268 14.6638 44.2941C15.0001 44.3389 15.3364 44.3614 15.6728 44.3614C16.2781 44.3614 16.9059 44.2829 17.5562 44.1259C18.2288 43.969 18.7894 43.6551 19.2378 43.1842C19.5517 42.8479 19.9105 42.6125 20.314 42.4779C20.7176 42.3434 21.1212 42.2313 21.5248 42.1416C21.9508 42.0519 22.3544 41.9398 22.7356 41.8053C23.1167 41.6483 23.4531 41.3793 23.7446 40.9981C23.9239 40.7515 24.1033 40.3703 24.2827 39.8546C24.4845 39.3389 24.6863 38.8008 24.8881 38.2403C25.0899 37.6797 25.2916 37.1752 25.4934 36.7268C25.7177 36.2559 25.9419 35.9645 26.1661 35.8523C26.3679 35.7402 26.4912 35.46 26.5361 35.0115C26.6033 34.5407 26.6369 33.9914 26.6369 33.3635V31.8165C26.6369 31.368 26.6482 30.9308 26.6706 30.5048C26.693 30.0788 26.7378 29.6976 26.8051 29.3613C26.8948 29.025 27.0181 28.7559 27.1751 28.5541C27.332 28.3523 27.545 28.2514 27.8141 28.2514C28.0607 28.2514 28.2513 28.3411 28.3858 28.5205C28.5428 28.6774 28.7334 28.7559 28.9576 28.7559C29.1818 28.7559 29.3948 28.6886 29.5966 28.5541C29.8208 28.3971 30.0563 28.3187 30.3029 28.3187C30.6392 28.3187 30.9419 28.4644 31.211 28.7559C31.5024 29.0474 31.7603 29.3725 31.9845 29.7312C32.2312 30.09 32.4217 30.4263 32.5563 30.7402C32.7132 31.0317 32.8253 31.1886 32.8926 31.2111C33.1168 31.2559 33.2401 31.4465 33.2625 31.7828C33.3074 32.0967 33.3298 32.3546 33.3298 32.5564ZM78.2642 45.2022C78.2642 45.404 78.253 45.673 78.2305 46.0094C78.2081 46.3457 78.096 46.5699 77.8942 46.682C77.67 46.7941 77.5242 46.9847 77.457 47.2538C77.4121 47.5228 77.3897 47.7919 77.3897 48.0609C77.3897 48.33 77.3785 48.5766 77.3561 48.8009C77.3337 49.0027 77.244 49.1035 77.087 49.1035C76.9749 49.1035 76.8852 49.0811 76.818 49.0363C76.7507 48.969 76.661 48.9354 76.5489 48.9354C76.4368 48.9354 76.3247 48.9914 76.2126 49.1035C76.1005 49.2157 76.0444 49.3278 76.0444 49.4399C76.0444 49.552 76.078 49.6417 76.1453 49.7089C76.235 49.7538 76.2798 49.8323 76.2798 49.9444C76.2798 50.034 76.1117 50.1462 75.7754 50.2807C75.439 50.3928 75.0579 50.5049 74.6319 50.617C74.2058 50.7515 73.791 50.8524 73.3875 50.9197C72.9839 51.0094 72.7148 51.0542 72.5803 51.0542C71.7731 51.0542 70.9659 50.9085 70.1587 50.617C69.3516 50.3255 68.5668 50.0565 67.8045 49.8098C66.8852 49.4959 66.2013 48.9802 65.7529 48.2627C65.3269 47.5452 65.013 46.7381 64.8112 45.8412C64.6094 44.9443 64.4524 44.025 64.3403 43.0833C64.2506 42.1416 64.0713 41.3008 63.8022 40.5609C63.6901 40.2246 63.634 39.9443 63.634 39.7201C63.634 39.4959 63.6565 39.3165 63.7013 39.182C63.7686 39.025 63.8358 38.9017 63.9031 38.812C63.9928 38.6999 64.06 38.6102 64.1049 38.5429C64.1721 38.4533 64.2058 38.3636 64.2058 38.2739C64.2058 38.0048 64.1273 37.7358 63.9704 37.4667C63.8134 37.1976 63.7349 36.8389 63.7349 36.3905C63.7349 36.1438 63.7349 35.9084 63.7349 35.6842C63.7573 35.4375 63.7686 35.1909 63.7686 34.9443C63.7686 34.1147 63.6901 33.4308 63.5331 32.8927C63.3986 32.3546 63.1968 31.8613 62.9277 31.4129C62.6811 30.9644 62.3784 30.516 62.0197 30.0676C61.6833 29.6191 61.3022 29.081 60.8762 28.4532C60.6744 28.498 60.4614 28.5205 60.2371 28.5205C60.0354 28.5205 59.8223 28.5205 59.5981 28.5205C59.1497 28.5205 58.7013 28.498 58.2528 28.4532C57.8268 28.4084 57.3896 28.3859 56.9412 28.3859C56.4703 28.3859 55.9882 28.4308 55.495 28.5205C55.0241 28.6102 54.542 28.655 54.0488 28.655C53.7349 28.655 53.421 28.6102 53.1071 28.5205C52.7932 28.4084 52.4793 28.3523 52.1654 28.3523C51.7842 28.3523 51.403 28.4308 51.0218 28.5877C50.6407 28.7223 50.2931 28.9241 49.9792 29.1931C49.6653 29.4398 49.4075 29.7424 49.2057 30.1012C49.0263 30.4375 48.9366 30.8075 48.9366 31.2111V32.2873C48.9366 34.238 48.7685 36.155 48.4321 38.0385C48.3873 38.3299 48.3425 38.6214 48.2976 38.9129C48.2528 39.182 48.2304 39.4734 48.2304 39.7873C48.2304 40.7066 48.4097 41.4466 48.7685 42.0071C49.1496 42.5676 49.6093 43.0273 50.1474 43.386C50.6855 43.7224 51.2797 44.0026 51.9299 44.2268C52.5802 44.4511 53.1743 44.6865 53.7124 44.9331C54.2506 45.1573 54.699 45.4376 55.0577 45.7739C55.4389 46.1103 55.6295 46.5699 55.6295 47.1529C55.6295 47.3771 55.5847 47.5901 55.495 47.7919C55.4277 47.9713 55.338 48.1506 55.2259 48.33C54.9344 48.8009 54.6542 49.1596 54.3851 49.4062C54.1385 49.6305 53.8582 49.8098 53.5443 49.9444C53.2528 50.0789 52.9277 50.1798 52.5689 50.2471C52.2102 50.3143 51.7842 50.404 51.2909 50.5161C50.9097 50.6058 50.5061 50.6619 50.0801 50.6843C49.6765 50.7291 49.273 50.7515 48.8694 50.7515C48.2416 50.7515 47.625 50.6731 47.0196 50.5161C46.4142 50.3816 45.7976 50.3143 45.1698 50.3143C44.6989 50.3143 44.2169 50.3592 43.7236 50.4488C43.2527 50.5161 42.7819 50.5946 42.311 50.6843C41.8402 50.7964 41.3693 50.8861 40.8985 50.9533C40.4276 51.043 39.9568 51.0879 39.4859 51.0879C39.172 51.0879 38.8245 51.0542 38.4433 50.987C38.0846 50.9197 37.7482 50.7964 37.4343 50.617C37.1204 50.4601 36.8514 50.2471 36.6271 49.978C36.4253 49.7089 36.3245 49.3838 36.3245 49.0027C36.3245 48.6887 36.4029 48.4085 36.5599 48.1618C36.7168 47.9152 36.9186 47.7022 37.1653 47.5228C37.4343 47.3434 37.7146 47.1977 38.0061 47.0856C38.2976 46.9735 38.5778 46.9062 38.8469 46.8838C39.0935 46.8614 39.2953 46.8502 39.4523 46.8502C39.6316 46.8502 39.7774 46.8278 39.8895 46.7829C40.024 46.7381 40.1586 46.6708 40.2931 46.5811C40.4276 46.4914 40.5846 46.3569 40.7639 46.1775C40.876 46.0654 40.9769 45.9757 41.0666 45.9085C41.1787 45.8412 41.3133 45.8076 41.4702 45.8076C41.5823 45.8076 41.6944 45.8188 41.8065 45.8412C41.9187 45.8636 42.0308 45.8748 42.1429 45.8748C42.3222 45.8748 42.5016 45.8188 42.681 45.7067C43.1518 45.4376 43.4882 45.0901 43.69 44.6641C43.8918 44.238 44.0263 43.7784 44.0936 43.2851C44.1608 42.7694 44.1945 42.2425 44.1945 41.7044C44.2169 41.1663 44.2841 40.673 44.3962 40.2246C44.5084 39.7313 44.5644 39.2717 44.5644 38.8456C44.5644 38.0609 44.4635 37.2873 44.2617 36.525C44.0823 35.7627 43.9927 34.9891 43.9927 34.2044C43.9927 33.2626 44.0599 32.3209 44.1945 31.3792C44.329 30.4375 44.3962 29.4958 44.3962 28.5541C44.3962 28.3075 44.385 28.072 44.3626 27.8478C44.3626 27.6236 44.3626 27.3882 44.3626 27.1415C44.3626 25.5272 44.4635 23.9352 44.6653 22.3657C44.8671 20.7962 44.968 19.2043 44.968 17.5899C44.968 17.1415 44.9568 16.7043 44.9344 16.2782C44.9119 15.8522 44.8783 15.415 44.8335 14.9666C44.7886 14.6078 44.7438 14.1706 44.6989 13.6549C44.6541 13.1168 44.5868 12.5675 44.4971 12.0069C44.4075 11.4464 44.2841 10.8858 44.1272 10.3253C43.9927 9.76475 43.7909 9.27147 43.5218 8.84546C43.2752 8.39703 42.9613 8.03828 42.5801 7.76922C42.2213 7.47774 41.7841 7.332 41.2684 7.332C41.1563 7.332 41.033 7.34321 40.8985 7.36563C40.7864 7.38805 40.6743 7.39926 40.5621 7.39926C40.3155 7.39926 40.1137 7.332 39.9568 7.19747C39.7998 7.04052 39.6765 6.86115 39.5868 6.65935C39.4971 6.43513 39.4298 6.19971 39.385 5.95307C39.3626 5.70643 39.3514 5.49342 39.3514 5.31405C39.3514 4.55171 39.542 3.99117 39.9231 3.63243C40.3267 3.27368 40.8088 3.02704 41.3693 2.89251C41.9523 2.75798 42.5689 2.70193 43.2191 2.72435C43.8918 2.72435 44.4859 2.70193 45.0016 2.65708C45.5846 2.61224 46.1563 2.51134 46.7169 2.35439C47.2999 2.19744 47.894 2.11896 48.4994 2.11896C49.3739 2.11896 50.2371 2.23107 51.0891 2.45529C51.9411 2.67951 52.8044 2.79161 53.6788 2.79161C54.3963 2.79161 55.0914 2.73556 55.764 2.62345C56.4367 2.48892 57.1093 2.30955 57.782 2.08533C58.1183 1.97322 58.421 1.91717 58.6901 1.91717C59.5645 1.91717 60.4277 2.02928 61.2798 2.25349C62.1318 2.47771 62.9838 2.61224 63.8358 2.65708C64.4188 2.70193 65.0242 2.81404 65.652 2.99341C66.2798 3.15036 66.8627 3.38579 67.4009 3.69969C67.9614 3.99117 68.4435 4.37234 68.8471 4.8432C69.2507 5.31405 69.5085 5.86338 69.6206 6.49119C69.6879 6.87236 69.8448 7.24231 70.0915 7.60106C70.3381 7.93738 70.596 8.25129 70.865 8.54277C71.1565 8.81183 71.4031 9.06968 71.6049 9.31632C71.8291 9.54053 71.9413 9.73112 71.9413 9.88807C71.9413 10.045 71.8628 10.1683 71.7058 10.258C71.5713 10.3253 71.504 10.4486 71.504 10.628C71.504 10.7401 71.5713 10.8634 71.7058 10.9979C71.8628 11.1325 72.0309 11.2894 72.2103 11.4688C72.3897 11.6482 72.5466 11.85 72.6812 12.0742C72.8381 12.276 72.9166 12.5002 72.9166 12.7468C72.9166 13.0832 72.8045 13.3858 72.5803 13.6549C72.3785 13.9015 72.2776 14.193 72.2776 14.5294L72.3448 14.6302L72.8157 14.4957L72.883 14.563C72.9727 14.9217 73.0063 15.3029 72.9839 15.7065C72.9839 16.0877 72.9839 16.4352 72.9839 16.7491C72.9839 17.1751 72.9727 17.646 72.9502 18.1617C72.9278 18.6774 72.8718 19.1818 72.7821 19.6751C72.6924 20.1684 72.5578 20.628 72.3785 21.0541C72.1991 21.4801 71.9413 21.8164 71.6049 22.063C71.4031 22.22 71.1901 22.3433 70.9659 22.433C70.7641 22.5003 70.5623 22.5899 70.3605 22.702C70.1587 22.7917 69.9794 22.9151 69.8224 23.072C69.6655 23.229 69.5421 23.442 69.4524 23.711C69.3403 24.0922 69.1498 24.4509 68.8807 24.7873C68.6116 25.1236 68.3314 25.4599 68.0399 25.7962C67.7708 26.1101 67.5242 26.4353 67.3 26.7716C67.0982 27.1079 66.9973 27.4779 66.9973 27.8814C66.9973 28.5317 67.143 29.1371 67.4345 29.6976C67.7484 30.2581 68.0287 30.8299 68.2753 31.4129C68.522 32.0182 68.7013 32.6348 68.8134 33.2626C68.9255 33.868 69.004 34.4846 69.0489 35.1124C69.1161 35.7402 69.161 36.368 69.1834 36.9959C69.2282 37.6237 69.2955 38.2515 69.3852 38.8793C69.43 39.1483 69.5309 39.5968 69.6879 40.2246C69.8673 40.83 70.0803 41.4466 70.3269 42.0744C70.5735 42.7022 70.8538 43.2515 71.1677 43.7224C71.4816 44.1932 71.8067 44.4286 72.143 44.4286C72.4345 44.4286 72.67 44.2717 72.8493 43.9578C73.0287 43.6439 73.1969 43.2851 73.3538 42.8815C73.5332 42.4779 73.7238 42.0856 73.9256 41.7044C74.1498 41.3232 74.4413 41.0654 74.8 40.9309C75.4951 40.9981 76.0668 41.1326 76.5153 41.3344C76.9861 41.5362 77.3449 41.8165 77.5915 42.1753C77.8381 42.5116 78.0063 42.9376 78.096 43.4533C78.2081 43.9466 78.2642 44.5295 78.2642 45.2022ZM68.208 14.2603C68.208 13.9464 68.1408 13.5876 68.0063 13.1841C67.8717 12.758 67.7036 12.332 67.5018 11.906C67.3 11.48 67.0758 11.0764 66.8291 10.6952C66.6049 10.3141 66.3807 10.0002 66.1565 9.75354C65.6856 9.75354 65.3717 9.71991 65.2148 9.65264C65.0578 9.58538 64.9569 9.5069 64.9121 9.41721C64.8672 9.30511 64.8112 9.18179 64.7439 9.04726C64.6991 8.91273 64.5421 8.7782 64.273 8.64367C63.4883 8.2625 62.782 7.97102 62.1542 7.76922C61.5264 7.56743 60.7753 7.46653 59.9008 7.46653C59.6542 7.46653 59.4075 7.53379 59.1609 7.66832C58.9367 7.80285 58.7349 7.87012 58.5555 7.87012C58.0398 7.87012 57.5353 7.81407 57.0421 7.70196C56.5488 7.56743 56.0443 7.50016 55.5286 7.50016C54.7887 7.50016 54.0263 7.58985 53.2416 7.76922C52.7259 7.90375 52.2102 8.02707 51.6945 8.13918C51.1788 8.25129 50.7192 8.41945 50.3156 8.64367C49.912 8.86788 49.5756 9.17058 49.3066 9.55174C49.06 9.93291 48.9366 10.4598 48.9366 11.1325C48.9366 11.8275 49.0039 12.5114 49.1384 13.1841C49.2954 13.8567 49.3739 14.5406 49.3739 15.2356C49.3739 15.572 49.3178 15.8971 49.2057 16.211C49.116 16.5249 49.0151 16.8388 48.903 17.1527C48.7909 17.4442 48.6788 17.7469 48.5667 18.0608C48.477 18.3747 48.4321 18.6998 48.4321 19.0361C48.4321 19.4397 48.4658 19.8545 48.533 20.2805C48.6227 20.6841 48.7685 21.0541 48.9703 21.3904C49.1721 21.7043 49.4299 21.9621 49.7438 22.1639C50.0801 22.3657 50.4949 22.4666 50.9882 22.4666C51.4591 22.4666 51.9075 22.3769 52.3335 22.1976C52.7595 21.9958 53.208 21.8949 53.6788 21.8949C53.9255 21.8949 54.1609 21.9621 54.3851 22.0967C54.6093 22.2088 54.8335 22.3321 55.0577 22.4666C55.282 22.6011 55.5174 22.7357 55.764 22.8702C56.0107 22.9823 56.2797 23.0384 56.5712 23.0384C56.7954 23.0384 57.0084 23.0159 57.2102 22.9711C57.412 22.9038 57.6026 22.8254 57.782 22.7357C58.634 22.3545 59.5309 22.0182 60.4726 21.7267C61.4367 21.4128 62.3896 21.2558 63.3313 21.2558C63.578 21.2558 63.8695 21.1213 64.2058 20.8523C64.5421 20.5608 64.8896 20.202 65.2484 19.776C65.6071 19.3276 65.9659 18.8455 66.3246 18.3298C66.6834 17.7917 66.9973 17.2648 67.2663 16.7491C67.5578 16.211 67.782 15.7289 67.939 15.3029C68.1184 14.8545 68.208 14.5069 68.208 14.2603ZM122.694 48.0946C122.559 48.5654 122.324 48.9466 121.988 49.2381C121.674 49.5071 121.304 49.7201 120.878 49.8771C120.452 50.034 119.992 50.1462 119.499 50.2134C119.028 50.2583 118.58 50.2807 118.154 50.2807C117.503 50.2807 116.864 50.2471 116.237 50.1798C115.609 50.0901 114.981 49.9892 114.353 49.8771C114.017 49.8323 113.591 49.7986 113.075 49.7762C112.582 49.7538 112.089 49.6977 111.595 49.608C111.102 49.5183 110.676 49.3614 110.317 49.1372C109.981 48.8905 109.813 48.5206 109.813 48.0273C109.813 47.4668 109.925 47.0632 110.149 46.8165C110.373 46.5475 110.654 46.3681 110.99 46.2784C111.326 46.1663 111.696 46.099 112.1 46.0766C112.503 46.0542 112.873 45.9869 113.21 45.8748C113.546 45.7403 113.826 45.5385 114.05 45.2694C114.275 44.978 114.387 44.5183 114.387 43.8905C114.387 43.4869 114.342 43.0833 114.252 42.6797C114.185 42.2762 114.107 41.8838 114.017 41.5026C113.927 41.099 113.837 40.7066 113.748 40.3255C113.681 39.9219 113.647 39.5183 113.647 39.1147C113.647 38.8456 113.725 38.5654 113.882 38.2739C114.062 37.96 114.151 37.6124 114.151 37.2313C114.151 36.5362 114.095 35.886 113.983 35.2806C113.871 34.6752 113.692 34.0474 113.445 33.3972C113.288 32.9712 113.21 32.5788 113.21 32.22C113.21 31.8837 113.277 31.5586 113.411 31.2447C113.568 30.9308 113.647 30.5945 113.647 30.2357C113.647 29.7649 113.568 29.3164 113.411 28.8904C113.254 28.442 113.176 27.9823 113.176 27.5115C113.176 26.8837 113.243 26.2671 113.378 25.6617C113.512 25.0563 113.58 24.4397 113.58 23.8119C113.58 23.3859 113.535 22.9151 113.445 22.3994C113.355 21.8837 113.232 21.368 113.075 20.8523C112.941 20.3141 112.795 19.7984 112.638 19.3052C112.481 18.7895 112.335 18.3298 112.201 17.9262C111.752 18.128 111.382 18.3971 111.091 18.7334C110.822 19.0473 110.598 19.4061 110.418 19.8097C110.261 20.2132 110.127 20.6393 110.015 21.0877C109.925 21.5361 109.846 21.9733 109.779 22.3994C109.622 23.2738 109.376 24.1258 109.039 24.9554C108.725 25.785 108.501 26.637 108.367 27.5115C108.187 28.5877 108.075 29.6528 108.03 30.7066C108.008 31.7604 107.952 32.8142 107.862 33.868C107.795 34.8994 107.672 35.9308 107.492 36.9622C107.313 37.9936 106.988 39.025 106.517 40.0564C106.337 40.4376 106.225 40.7963 106.18 41.1326C106.136 41.469 106.113 41.8165 106.113 42.1753C106.113 42.4892 106.124 42.8031 106.147 43.117C106.169 43.4309 106.18 43.756 106.18 44.0923C106.18 44.7874 106.102 45.3143 105.945 45.673C105.811 46.0094 105.654 46.2896 105.474 46.5138C105.295 46.7381 105.115 46.9623 104.936 47.1865C104.757 47.3883 104.622 47.7022 104.532 48.1282C104.465 48.487 104.275 48.7672 103.961 48.969C103.669 49.1484 103.322 49.3053 102.918 49.4399C102.515 49.552 102.111 49.6529 101.707 49.7426C101.304 49.8098 100.967 49.9107 100.698 50.0453C100.452 49.5296 100.149 49.0475 99.7903 48.5991C99.454 48.1506 99.1401 47.6798 98.8486 47.1865C98.5347 46.6708 98.3329 46.1215 98.2432 45.5385C98.1759 44.9555 98.0414 44.3726 97.8396 43.7896C97.7499 43.5206 97.6378 43.2851 97.5033 43.0833C97.3912 42.8815 97.2791 42.6797 97.167 42.4779C97.0773 42.2537 96.9876 42.0295 96.8979 41.8053C96.8306 41.5811 96.797 41.312 96.797 40.9981C96.797 40.7515 96.8082 40.5273 96.8306 40.3255C96.8531 40.1013 96.8643 39.8658 96.8643 39.6192C96.8643 39.0811 96.7746 38.5093 96.5952 37.9039C96.2365 36.7604 95.9226 35.6393 95.6535 34.5407C95.3844 33.442 95.1939 32.2873 95.0817 31.0765C94.9696 29.9779 94.88 28.868 94.8127 27.7469C94.7454 26.6258 94.51 25.5384 94.1064 24.4846C93.9046 23.9689 93.6692 23.4756 93.4001 23.0047C93.1311 22.5339 92.9068 22.0406 92.7275 21.5249C92.6826 21.4128 92.6378 21.2334 92.5929 20.9868C92.5705 20.7402 92.5257 20.4823 92.4584 20.2132C92.4136 19.9442 92.3463 19.7088 92.2566 19.507C92.1894 19.2827 92.1109 19.1594 92.0212 19.137C91.9091 19.2267 91.8306 19.3612 91.7858 19.5406C91.6288 19.9442 91.5055 20.2245 91.4158 20.3814C91.3261 20.5384 91.2364 20.6729 91.1467 20.785C91.0795 20.8747 90.9898 20.9756 90.8777 21.0877C90.7656 21.1998 90.6086 21.4016 90.4068 21.6931C90.2275 21.9397 90.1378 22.2088 90.1378 22.5003C90.1378 23.0159 90.2499 23.5204 90.4741 24.0137C90.6983 24.4846 90.8104 24.9778 90.8104 25.4935C90.8104 25.7402 90.7656 25.998 90.6759 26.2671C90.5862 26.5137 90.5414 26.7604 90.5414 27.007C90.5414 27.6572 90.631 28.3075 90.8104 28.9577C91.0122 29.5855 91.1131 30.2245 91.1131 30.8747C91.1131 31.3904 91.0346 31.8949 90.8777 32.3882C90.7207 32.8591 90.6423 33.3523 90.6423 33.868C90.6423 34.4062 90.6983 34.9443 90.8104 35.4824C90.9449 35.9981 91.0122 36.525 91.0122 37.0631C91.0122 37.5116 90.9674 37.9488 90.8777 38.3748C90.788 38.7784 90.6871 39.1932 90.575 39.6192C90.4853 40.0452 90.3956 40.4712 90.3059 40.8972C90.2162 41.3232 90.1714 41.7605 90.1714 42.2089C90.1714 43.1282 90.3508 43.7784 90.7095 44.1596C91.0683 44.5407 91.4943 44.8322 91.9876 45.034C92.5033 45.2358 93.0302 45.4376 93.5683 45.6394C94.1064 45.8188 94.566 46.1663 94.9472 46.682C94.7454 47.0183 94.5885 47.3883 94.4764 47.7919C94.3867 48.1731 94.2409 48.5318 94.0391 48.8681C93.8598 49.1596 93.6692 49.3614 93.4674 49.4735C93.288 49.5856 93.0974 49.6641 92.8956 49.7089C92.7163 49.7314 92.5145 49.765 92.2902 49.8098C92.066 49.8323 91.8306 49.9107 91.584 50.0453C91.3373 50.1798 91.158 50.3143 91.0458 50.4488C90.9562 50.561 90.8665 50.6619 90.7768 50.7515C90.6871 50.8636 90.5526 50.9421 90.3732 50.987C90.2162 51.0542 89.9584 51.0879 89.5997 51.0879C89.2185 51.0879 88.8373 51.043 88.4561 50.9533C88.075 50.8636 87.6938 50.8188 87.3126 50.8188C86.9091 50.8188 86.5167 50.8749 86.1355 50.987C85.7543 51.1215 85.362 51.1888 84.9584 51.1888C84.4875 51.1888 84.0167 51.0991 83.5458 50.9197C83.0749 50.7628 82.6489 50.5385 82.2678 50.2471C81.909 49.9332 81.6063 49.5744 81.3597 49.1708C81.1355 48.7448 81.0234 48.2739 81.0234 47.7582C81.0234 46.9959 81.1803 46.4129 81.4942 46.0094C81.8081 45.6058 82.2005 45.2919 82.6714 45.0677C83.1646 44.821 83.6915 44.6192 84.2521 44.4623C84.8126 44.2829 85.3395 44.0587 85.8328 43.7896C85.9449 43.4084 86.0122 43.0273 86.0346 42.6461C86.057 42.2425 86.0682 41.8389 86.0682 41.4353C86.0682 40.7851 86.0346 40.1349 85.9673 39.4847C85.9225 38.8344 85.9001 38.1842 85.9001 37.534C85.9001 37.108 85.9449 36.6932 86.0346 36.2896C86.1243 35.8636 86.1691 35.4263 86.1691 34.9779C86.1691 34.7537 86.1355 34.5407 86.0682 34.3389C85.7543 33.5093 85.5525 32.7133 85.4629 31.951C85.3956 31.1886 85.362 30.359 85.362 29.4622C85.362 29.081 85.4068 28.7111 85.4965 28.3523C85.6086 27.9936 85.7207 27.6348 85.8328 27.2761C85.9673 26.9173 86.0794 26.5586 86.1691 26.1998C86.2812 25.8411 86.3373 25.4711 86.3373 25.09C86.3373 24.3949 86.2925 23.711 86.2028 23.0384C86.1131 22.3657 86.0682 21.6819 86.0682 20.9868C86.0682 20.5384 86.1131 20.1011 86.2028 19.6751C86.2925 19.2491 86.3373 18.8119 86.3373 18.3635C86.3373 17.915 86.2476 17.489 86.0682 17.0854C85.8889 16.6594 85.7992 16.2222 85.7992 15.7738C85.7992 15.4599 85.8777 15.1796 86.0346 14.9329C86.214 14.6863 86.3037 14.406 86.3037 14.0921C86.3037 13.9128 86.214 13.7334 86.0346 13.554C85.8552 13.3746 85.7655 13.0832 85.7655 12.6796C85.7655 12.3432 85.7768 12.0069 85.7992 11.6706C85.844 11.3343 85.8664 10.9979 85.8664 10.6616C85.8664 9.98897 85.7543 9.46206 85.5301 9.08089C85.3059 8.6773 85.0256 8.37461 84.6893 8.17281C84.3754 7.9486 84.0279 7.79164 83.6467 7.70196C83.2655 7.61227 82.9068 7.52258 82.5705 7.4329C82.2566 7.32079 81.9875 7.19747 81.7633 7.06294C81.5391 6.92841 81.427 6.70419 81.427 6.39029C81.427 6.09881 81.5839 5.80733 81.8978 5.51585C82.2341 5.20194 82.6489 4.89925 83.1422 4.60777C83.6355 4.31629 84.1736 4.03602 84.7566 3.76696C85.3395 3.47547 85.8777 3.21763 86.3709 2.99341C86.8642 2.76919 87.279 2.57861 87.6153 2.42166C87.9741 2.26471 88.1759 2.1526 88.2207 2.08533C88.3104 2.24228 88.4337 2.35439 88.5907 2.42166C88.7476 2.4665 88.9158 2.50013 89.0952 2.52255C89.297 2.52255 89.4875 2.52255 89.6669 2.52255C89.8687 2.52255 90.0369 2.54498 90.1714 2.58982C90.3956 2.65708 90.5638 2.74677 90.6759 2.85888C90.788 2.97099 90.8889 3.0831 90.9786 3.1952C91.0907 3.30731 91.2364 3.41942 91.4158 3.53153C91.5952 3.64364 91.8642 3.74453 92.223 3.83422C93.075 4.05844 93.714 4.38355 94.14 4.80956C94.5885 5.21315 94.8127 5.8858 94.8127 6.82751C94.8127 7.07415 94.7903 7.32079 94.7454 7.56743C94.7006 7.79164 94.6782 8.02707 94.6782 8.27371L95.519 10.6616C95.5862 10.9083 95.6535 11.1661 95.7208 11.4352C95.8104 11.6818 95.8777 11.9284 95.9226 12.1751C96.1692 12.3769 96.3598 12.6796 96.4943 13.0832C96.6288 13.4867 96.7185 13.924 96.7634 14.3948C96.8306 14.8433 96.8755 15.2917 96.8979 15.7401C96.9203 16.1886 96.954 16.5697 96.9988 16.8836C97.0661 17.3993 97.1782 17.9038 97.3351 18.3971C97.5145 18.8679 97.6042 19.3612 97.6042 19.8769C97.6042 20.1908 97.5481 20.5047 97.436 20.8186C97.3463 21.1325 97.3015 21.4576 97.3015 21.794C97.3015 22.3769 97.38 22.9487 97.5369 23.5092C97.6939 24.0698 97.8732 24.6303 98.075 25.1909C98.2768 25.729 98.4562 26.2783 98.6132 26.8388C98.7925 27.3994 98.8934 27.9711 98.9158 28.5541C98.9158 28.8232 98.9383 29.238 98.9831 29.7985C99.0504 30.359 99.1289 30.9868 99.2185 31.6819C99.3306 32.3546 99.454 33.0609 99.5885 33.8008C99.7455 34.5183 99.9248 35.1797 100.127 35.7851C100.351 36.3905 100.597 36.8837 100.867 37.2649C101.158 37.6461 101.472 37.8367 101.808 37.8367C102.212 37.8367 102.47 37.7246 102.582 37.5003C102.694 37.2537 102.761 36.9734 102.784 36.6595C102.806 36.3456 102.84 36.0317 102.884 35.7178C102.929 35.4039 103.086 35.1797 103.355 35.0452C103.58 34.9106 103.77 34.6528 103.927 34.2716C104.106 33.868 104.252 33.4308 104.364 32.96C104.476 32.4667 104.555 31.9958 104.6 31.5474C104.667 31.0765 104.712 30.7178 104.734 30.4712C104.802 29.3052 104.835 28.1057 104.835 26.8725C104.835 25.6393 104.858 24.4061 104.902 23.1729C104.947 21.9173 105.048 20.6953 105.205 19.507C105.362 18.2962 105.62 17.1303 105.979 16.0092C106.046 15.8298 106.136 15.6616 106.248 15.5047C106.36 15.3477 106.472 15.1908 106.584 15.0338C106.696 14.8545 106.786 14.6863 106.853 14.5294C106.943 14.35 106.988 14.1594 106.988 13.9576C106.988 13.8231 106.954 13.711 106.887 13.6213C106.819 13.5092 106.741 13.4195 106.651 13.3522C106.584 13.285 106.517 13.2177 106.45 13.1504C106.382 13.0832 106.349 13.0047 106.349 12.915C106.349 12.8029 106.382 12.7244 106.45 12.6796C106.517 12.6123 106.584 12.545 106.651 12.4778C106.965 12.119 107.156 11.6257 107.223 10.9979C107.313 10.3477 107.369 9.66385 107.391 8.94636C107.414 8.20644 107.436 7.48895 107.459 6.79388C107.503 6.07639 107.649 5.471 107.896 4.97773C108.165 5.08983 108.423 5.14589 108.669 5.14589C108.983 5.14589 109.286 5.08983 109.577 4.97773C109.869 4.8432 110.149 4.70867 110.418 4.57414C110.71 4.43961 111.001 4.31629 111.293 4.20418C111.607 4.06965 111.932 4.00238 112.268 4.00238C112.38 4.00238 112.503 4.01359 112.638 4.03602C112.772 4.03602 112.896 4.03602 113.008 4.03602C113.456 4.03602 113.86 3.93512 114.219 3.73332C114.577 3.53153 114.947 3.43063 115.329 3.43063C115.485 3.43063 115.598 3.46426 115.665 3.53153C115.732 3.59879 115.777 3.66606 115.799 3.73332C115.844 3.80059 115.889 3.86785 115.934 3.93512C115.979 4.00238 116.046 4.03602 116.136 4.03602C116.517 4.03602 116.898 3.99117 117.279 3.90149C117.683 3.8118 118.075 3.76696 118.456 3.76696C118.703 3.76696 118.905 3.80059 119.062 3.86785C119.219 3.9127 119.376 4.04723 119.533 4.27144C119.712 4.5405 119.959 4.71988 120.272 4.80956C120.586 4.87683 120.9 4.9553 121.214 5.04499C121.528 5.11226 121.797 5.22436 122.021 5.38132C122.268 5.51585 122.391 5.77369 122.391 6.15486C122.391 6.93962 122.201 7.47774 121.82 7.76922C121.438 8.0607 120.99 8.2625 120.474 8.37461C119.981 8.46429 119.488 8.55398 118.994 8.64367C118.524 8.71093 118.187 8.92394 117.985 9.28268C117.761 9.66385 117.627 10.0787 117.582 10.5271C117.537 10.9755 117.425 11.4127 117.246 11.8388C117.178 12.0181 117.122 12.1863 117.077 12.3432C117.033 12.5002 117.01 12.6684 117.01 12.8477C117.01 13.2065 117.055 13.554 117.145 13.8903C117.234 14.2267 117.335 14.563 117.447 14.8993C117.582 15.2132 117.705 15.5383 117.817 15.8747C117.929 16.211 118.008 16.5473 118.053 16.8836C118.187 18.0944 118.255 19.3052 118.255 20.5159C118.255 21.2334 118.21 21.9509 118.12 22.6684C118.053 23.3859 117.974 24.1034 117.885 24.8209C117.795 25.5384 117.705 26.2559 117.616 26.9734C117.548 27.6684 117.515 28.3635 117.515 29.0586C117.515 29.5967 117.346 30.0339 117.01 30.3703L116.976 31.1438C116.976 31.794 117.021 32.4443 117.111 33.0945C117.201 33.7447 117.302 34.3949 117.414 35.0452C117.526 35.673 117.627 36.312 117.716 36.9622C117.806 37.6124 117.851 38.2627 117.851 38.9129C117.851 39.7873 117.728 40.6506 117.481 41.5026C117.234 42.3546 117.111 43.2179 117.111 44.0923C117.111 44.7425 117.246 45.2582 117.515 45.6394C117.784 46.0206 118.277 46.2112 118.994 46.2112C119.308 46.2112 119.622 46.1999 119.936 46.1775C120.272 46.1327 120.598 46.1103 120.911 46.1103C121.225 46.1103 121.551 46.1439 121.887 46.2112C122.223 46.2784 122.515 46.4354 122.761 46.682C122.761 46.7717 122.772 46.9062 122.795 47.0856C122.84 47.265 122.862 47.4443 122.862 47.6237C122.885 47.7807 122.885 47.9152 122.862 48.0273C122.84 48.1394 122.784 48.1618 122.694 48.0946ZM91.6176 14.9329C91.6176 14.5069 91.5503 14.0809 91.4158 13.6549C91.3037 13.2065 91.0458 12.8701 90.6423 12.6459C90.6423 12.8477 90.631 13.0607 90.6086 13.285C90.6086 13.4867 90.6086 13.6885 90.6086 13.8903C90.6086 14.2491 90.6535 14.6078 90.7432 14.9666C90.8553 15.3029 91.1355 15.4823 91.584 15.5047C91.6064 15.415 91.6176 15.3253 91.6176 15.2356C91.6176 15.1459 91.6176 15.0451 91.6176 14.9329ZM117.851 46.1103C117.851 45.9757 117.761 45.8636 117.582 45.7739C117.403 45.6842 117.257 45.6394 117.145 45.6394C117.077 45.6394 116.976 45.6506 116.842 45.673C116.73 45.6955 116.607 45.7291 116.472 45.7739C116.36 45.8188 116.259 45.8748 116.169 45.9421C116.08 46.0094 116.035 46.0878 116.035 46.1775C116.035 46.3121 116.136 46.4017 116.337 46.4466C116.562 46.469 116.73 46.4802 116.842 46.4802C116.954 46.4802 117.145 46.4578 117.414 46.4129C117.705 46.3681 117.851 46.2672 117.851 46.1103ZM103.086 41.4017C102.997 41.4017 102.907 41.4017 102.817 41.4017C102.75 41.3793 102.671 41.3681 102.582 41.3681C102.201 41.3681 101.864 41.4466 101.573 41.6035C101.304 41.738 101.169 42.0295 101.169 42.4779V42.8479C101.259 42.8479 101.337 42.8591 101.405 42.8815C101.494 42.8815 101.584 42.8815 101.674 42.8815C102.055 42.8815 102.391 42.8143 102.683 42.6797C102.974 42.5228 103.12 42.2201 103.12 41.7717L103.086 41.4017ZM182.697 47.96C182.697 48.2067 182.652 48.4421 182.563 48.6663C182.473 48.8905 182.372 49.1148 182.26 49.339C182.036 49.765 181.823 50.1013 181.621 50.348C181.441 50.5946 181.251 50.774 181.049 50.8861C180.847 51.0206 180.623 51.0991 180.376 51.1215C180.152 51.1663 179.883 51.1888 179.569 51.1888H178.426C178.246 51.256 178.078 51.2897 177.921 51.2897C177.719 51.2897 177.585 51.2 177.518 51.0206C177.473 50.8636 177.45 50.6843 177.45 50.4825C177.45 50.3704 177.45 50.2695 177.45 50.1798C177.473 50.0677 177.484 49.978 177.484 49.9107C177.484 49.7314 177.45 49.5744 177.383 49.4399C177.338 49.3053 177.215 49.2381 177.013 49.2381C176.677 49.2381 176.408 49.339 176.206 49.5408C176.027 49.7201 175.847 49.9219 175.668 50.1462C175.511 50.3704 175.332 50.5722 175.13 50.7515C174.928 50.9533 174.636 51.0542 174.255 51.0542C173.807 51.0542 173.358 50.987 172.91 50.8524C172.484 50.7179 172.047 50.6282 171.598 50.5834C170.679 50.5161 169.76 50.4713 168.84 50.4488C167.921 50.4264 167.002 50.404 166.083 50.3816C165.186 50.3367 164.278 50.2695 163.358 50.1798C162.462 50.0901 161.565 49.9444 160.668 49.7426C160.466 49.6977 160.264 49.6641 160.062 49.6417C159.861 49.6192 159.67 49.608 159.491 49.608C158.571 49.608 157.663 49.7089 156.766 49.9107C155.892 50.0901 154.905 50.1798 153.807 50.1798C153.067 50.1798 152.327 50.2583 151.587 50.4152C150.847 50.5722 150.107 50.6506 149.367 50.6506C149.009 50.6506 148.594 50.5834 148.123 50.4488C147.652 50.2919 147.192 50.0901 146.744 49.8435C146.318 49.5968 145.948 49.2941 145.634 48.9354C145.343 48.5766 145.197 48.1955 145.197 47.7919C145.197 47.5004 145.331 47.1977 145.6 46.8838C145.892 46.5475 146.228 46.2336 146.609 45.9421C146.991 45.6282 147.372 45.3479 147.753 45.1013C148.157 44.8322 148.47 44.6192 148.695 44.4623C150.062 44.6416 151.43 44.8434 152.798 45.0677C154.166 45.2919 155.544 45.404 156.935 45.404C157.787 45.404 158.459 45.3031 158.953 45.1013C159.468 44.8771 159.849 44.5856 160.096 44.2268C160.365 43.8457 160.533 43.4084 160.601 42.9152C160.69 42.3995 160.735 41.8501 160.735 41.2672C160.735 40.9309 160.724 40.5945 160.701 40.2582C160.701 39.9219 160.701 39.5631 160.701 39.182C160.701 35.6842 160.791 32.2088 160.97 28.7559C161.172 25.2805 161.273 21.794 161.273 18.2962C161.273 16.5697 161.228 14.8545 161.139 13.1504C161.071 11.4464 160.914 9.74233 160.668 8.03828C160.354 7.97102 160.051 7.90375 159.76 7.83649C159.491 7.76922 159.166 7.73559 158.784 7.73559C158.672 7.73559 158.616 7.7468 158.616 7.76922C158.527 7.67954 158.414 7.63469 158.28 7.63469C158.168 7.61227 158.056 7.60106 157.944 7.60106C157.428 7.60106 156.935 7.67954 156.464 7.83649C155.993 7.97102 155.511 8.03828 155.018 8.03828C154.883 8.03828 154.771 8.01586 154.681 7.97102C154.614 7.92617 154.535 7.87012 154.446 7.80285C154.379 7.73559 154.289 7.67954 154.177 7.63469C154.087 7.58985 153.964 7.56743 153.807 7.56743C153.067 7.56743 152.327 7.6459 151.587 7.80285C150.847 7.95981 150.096 8.03828 149.334 8.03828C148.796 8.03828 148.257 7.95981 147.719 7.80285C147.204 7.6459 146.733 7.39926 146.307 7.06294C146.464 6.72662 146.542 6.32303 146.542 5.85217C146.542 5.49342 146.509 5.14589 146.441 4.80956C146.374 4.45082 146.329 4.09207 146.307 3.73332C146.464 3.80059 146.632 3.83422 146.811 3.83422C147.148 3.83422 147.461 3.75575 147.753 3.59879C148.067 3.41942 148.37 3.22884 148.661 3.02704C148.952 2.80282 149.255 2.61224 149.569 2.45529C149.883 2.27592 150.208 2.18623 150.544 2.18623C151.217 2.18623 151.879 2.28713 152.529 2.48892C153.201 2.69072 153.874 2.79161 154.547 2.79161C154.928 2.79161 155.253 2.72435 155.522 2.58982C155.791 2.43287 156.027 2.35439 156.228 2.35439C156.453 2.35439 156.621 2.42166 156.733 2.55619C156.867 2.69072 157.058 2.75798 157.305 2.75798C157.663 2.75798 158.022 2.69072 158.381 2.55619C158.762 2.42166 159.132 2.28713 159.491 2.1526C159.849 1.99565 160.219 1.8499 160.601 1.71537C160.982 1.58084 161.374 1.51358 161.778 1.51358C162.338 1.51358 162.888 1.58084 163.426 1.71537C163.986 1.8499 164.536 1.91717 165.074 1.91717C165.365 1.91717 165.645 1.88354 165.914 1.81627H165.948C165.903 1.92838 165.881 2.10775 165.881 2.35439C165.881 2.6683 165.926 2.94857 166.015 3.1952C166.127 3.44184 166.24 3.69969 166.352 3.96875C166.486 4.23781 166.598 4.56293 166.688 4.94409C166.8 5.32526 166.856 5.80733 166.856 6.39029C166.856 7.39926 166.879 8.39703 166.923 9.38358C166.968 10.3477 166.991 11.3343 166.991 12.3432C166.991 12.8589 166.946 13.3634 166.856 13.8567C166.789 14.3276 166.643 14.7872 166.419 15.2356C166.621 15.415 166.744 15.628 166.789 15.8747C166.856 16.0989 166.89 16.3455 166.89 16.6146V17.1527C166.89 17.3993 166.912 17.6572 166.957 17.9262C167.024 18.1953 167.17 18.4195 167.394 18.5989L167.428 18.9688C167.428 19.2603 167.372 19.5182 167.26 19.7424C167.17 19.9666 167.069 20.1796 166.957 20.3814C166.845 20.5832 166.733 20.785 166.621 20.9868C166.531 21.1886 166.486 21.4128 166.486 21.6594C166.486 22.1751 166.553 22.702 166.688 23.2402C166.845 23.7559 166.923 24.3052 166.923 24.8882C166.923 25.6057 166.879 26.3231 166.789 27.0406C166.699 27.7357 166.598 28.442 166.486 29.1595C166.374 29.8546 166.273 30.5608 166.184 31.2783C166.094 31.9734 166.049 32.6797 166.049 33.3972C166.049 33.5766 166.015 33.7223 165.948 33.8344C165.903 33.9465 165.825 34.0026 165.713 34.0026C165.69 34.0026 165.612 33.9801 165.477 33.9353C165.477 34.5183 165.522 35.1012 165.612 35.6842C165.701 36.2671 165.791 36.8501 165.881 37.4331C165.993 37.9936 166.094 38.5654 166.184 39.1483C166.273 39.7313 166.318 40.3255 166.318 40.9309V41.4017L166.284 41.8726C166.284 43.0609 166.677 43.9354 167.462 44.4959C168.246 45.0564 169.21 45.3367 170.354 45.3367C171.116 45.3367 171.688 45.2694 172.069 45.1349C172.473 44.978 172.764 44.8098 172.944 44.6304C173.145 44.4511 173.302 44.2941 173.415 44.1596C173.527 44.0026 173.695 43.9241 173.919 43.9241C174.569 43.9241 175.231 44.0026 175.903 44.1596C176.598 44.2941 177.271 44.395 177.921 44.4623C178.258 44.5071 178.594 44.5295 178.93 44.5295C179.267 44.5295 179.592 44.5632 179.906 44.6304C180.219 44.6753 180.511 44.765 180.78 44.8995C181.049 45.034 181.296 45.2694 181.52 45.6058C181.744 45.9421 181.991 46.3121 182.26 46.7156C182.551 47.1192 182.697 47.534 182.697 47.96ZM217.037 3.66606C217.015 3.84543 217.004 4.1257 217.004 4.50687C217.004 4.86562 216.992 5.26921 216.97 5.71764C216.947 6.14365 216.903 6.59209 216.835 7.06294C216.768 7.51137 216.678 7.92617 216.566 8.30734C216.454 8.68851 216.297 9.00241 216.095 9.24905C215.916 9.47327 215.692 9.58538 215.423 9.58538C215.378 9.58538 215.344 9.58538 215.322 9.58538C215.3 9.56295 215.277 9.55174 215.255 9.55174C215.21 9.93291 215.086 10.4038 214.885 10.9643C214.683 11.5248 214.425 12.1302 214.111 12.7805C213.797 13.4307 213.45 14.0921 213.069 14.7648C212.687 15.415 212.295 16.0428 211.891 16.6482C211.51 17.2536 211.129 17.7917 210.748 18.2626C210.367 18.7334 210.042 19.0922 209.773 19.3388C209.504 19.5854 209.234 19.9778 208.965 20.5159C208.719 21.0541 208.461 21.6482 208.192 22.2985C207.923 22.9263 207.643 23.5653 207.351 24.2155C207.082 24.8433 206.79 25.359 206.477 25.7626C206.208 26.0989 205.938 26.5474 205.669 27.1079C205.423 27.646 205.277 28.1393 205.232 28.5877L205.333 28.9241C205.288 29.2604 205.176 29.507 204.997 29.664C204.817 29.7985 204.616 29.9442 204.391 30.1012C204.167 30.2581 203.965 30.4599 203.786 30.7066C203.629 30.9532 203.551 31.3456 203.551 31.8837C203.551 32.0855 203.506 32.2649 203.416 32.4218C203.326 32.5788 203.225 32.7245 203.113 32.8591C203.024 32.9712 202.934 33.0945 202.844 33.229C202.777 33.3411 202.743 33.4757 202.743 33.6326C202.743 33.9465 202.788 34.2492 202.878 34.5407C202.99 34.8322 203.046 35.1349 203.046 35.4488C203.046 36.099 202.99 36.7268 202.878 37.3322C202.766 37.9376 202.71 38.5542 202.71 39.182C202.71 39.6304 202.642 40.0452 202.508 40.4264C202.373 40.8075 202.216 41.1775 202.037 41.5362C201.858 41.895 201.656 42.2537 201.432 42.6125C201.23 42.9712 201.062 43.3524 200.927 43.756C200.815 44.0699 200.692 44.3389 200.557 44.5632C200.423 44.7874 200.21 44.9892 199.918 45.1685C199.963 45.3255 200.008 45.4825 200.053 45.6394C200.098 45.7739 200.12 45.9309 200.12 46.1103C200.12 46.3121 200.075 46.5923 199.986 46.9511C199.896 47.3098 199.773 47.6574 199.616 47.9937C199.459 48.33 199.268 48.6327 199.044 48.9018C198.82 49.1484 198.573 49.2717 198.304 49.2717C198.214 49.2717 198.147 49.2605 198.102 49.2381C198.192 49.395 198.248 49.5632 198.27 49.7426C198.293 49.8995 198.304 50.0677 198.304 50.2471C198.304 50.6282 198.27 51.0094 198.203 51.3906C198.136 51.7717 198.102 52.1529 198.102 52.5341V52.8368H197.799C196.477 52.8368 195.524 52.5116 194.941 51.8614C194.38 51.2112 194.1 50.2358 194.1 48.9354C194.1 47.9713 194.178 47.0295 194.335 46.1103C194.515 45.1685 194.604 44.2156 194.604 43.2515C194.604 42.9376 194.515 42.6461 194.335 42.3771C194.178 42.108 194.1 41.8165 194.1 41.5026C194.1 41.3905 194.122 41.3008 194.167 41.2335C194.234 41.1663 194.313 41.0878 194.403 40.9981C194.716 40.7291 194.941 40.4152 195.075 40.0564C195.21 39.6977 195.333 39.3389 195.445 38.9802C195.58 38.6214 195.737 38.3075 195.916 38.0385C196.095 37.7694 196.376 37.59 196.757 37.5003V37.2649C196.757 37.0407 196.712 36.8389 196.622 36.6595C196.533 36.4577 196.488 36.2447 196.488 36.0205C196.488 35.7963 196.555 35.5945 196.69 35.4151C196.824 35.2358 196.947 35.0564 197.059 34.877C197.194 34.6752 197.362 34.3053 197.564 33.7671C197.766 33.2066 197.968 32.6461 198.169 32.0855C198.394 31.5025 198.595 30.9756 198.775 30.5048C198.977 30.0339 199.145 29.7649 199.279 29.6976C199.705 29.4734 199.986 29.1931 200.12 28.8568C200.255 28.498 200.344 28.1393 200.389 27.7806C200.456 27.4218 200.535 27.0855 200.625 26.7716C200.714 26.4353 200.927 26.1774 201.264 25.998C201.533 25.8635 201.723 25.6617 201.835 25.3926C201.97 25.1012 202.071 24.7985 202.138 24.4846C202.205 24.1482 202.261 23.8231 202.306 23.5092C202.373 23.1729 202.474 22.8814 202.609 22.6348C202.721 22.433 202.855 22.2648 203.012 22.1303C203.192 21.9733 203.36 21.8276 203.517 21.6931C203.674 21.5585 203.808 21.4128 203.921 21.2558C204.033 21.0989 204.089 20.8971 204.089 20.6505V20.4487C204.268 20.3141 204.425 20.1684 204.56 20.0114C204.694 19.8545 204.795 19.6751 204.862 19.4733C204.952 19.137 205.075 18.8343 205.232 18.5653C205.412 18.2962 205.591 18.0383 205.77 17.7917C205.972 17.5451 206.151 17.2872 206.308 17.0182C206.488 16.7491 206.634 16.4576 206.746 16.1437C206.835 15.8747 207.026 15.4599 207.317 14.8993C207.631 14.3388 207.956 13.7782 208.293 13.2177C208.629 12.6347 208.932 12.1078 209.201 11.637C209.47 11.1661 209.604 10.8858 209.604 10.7961C209.604 10.5719 209.504 10.3926 209.302 10.258C209.122 10.1235 208.909 10.0226 208.663 9.95533C208.416 9.88807 208.158 9.85444 207.889 9.85444C207.62 9.83201 207.407 9.8208 207.25 9.8208C206.69 9.8208 206.14 9.86565 205.602 9.95533C205.064 10.0226 204.515 10.0562 203.954 10.0562C203.035 10.0562 202.071 9.93291 201.062 9.68627C200.053 9.41721 199.223 8.91273 198.573 8.17281C198.371 8.2625 198.169 8.31855 197.968 8.34097C197.766 8.3634 197.564 8.37461 197.362 8.37461C196.891 8.37461 196.432 8.31855 195.983 8.20644C195.557 8.09434 195.12 7.97102 194.672 7.83649C194.223 7.70196 193.775 7.57864 193.326 7.46653C192.9 7.35442 192.452 7.29837 191.981 7.29837C191.533 7.29837 191.05 7.37684 190.535 7.53379C190.042 7.69075 189.571 7.91496 189.122 8.20644C188.696 8.49793 188.315 8.83425 187.979 9.21542C187.665 9.59659 187.452 10.0226 187.34 10.4935C187.228 10.9419 187.082 11.3679 186.902 11.7715C186.723 12.1527 186.521 12.5338 186.297 12.915C186.095 13.2962 185.882 13.6773 185.658 14.0585C185.456 14.4397 185.288 14.832 185.154 15.2356C185.019 15.572 184.817 15.8971 184.548 16.211C184.279 16.5025 183.965 16.7603 183.606 16.9845C183.27 17.1863 182.911 17.3545 182.53 17.489C182.149 17.6011 181.779 17.6572 181.42 17.6572C180.703 17.0518 180.344 16.3231 180.344 15.4711C180.344 14.9554 180.367 14.4621 180.411 13.9912C180.479 13.498 180.512 12.9935 180.512 12.4778C180.512 12.1863 180.58 11.9172 180.714 11.6706C180.871 11.424 181.05 11.1885 181.252 10.9643C181.454 10.7401 181.656 10.5159 181.858 10.2917C182.059 10.0674 182.216 9.8208 182.328 9.55174C182.463 9.23784 182.564 8.87909 182.631 8.4755C182.698 8.07191 182.754 7.65711 182.799 7.2311C182.844 6.78267 182.867 6.35666 182.867 5.95307C182.889 5.52706 182.9 5.14589 182.9 4.80956C182.9 4.38355 182.889 3.96875 182.867 3.56516C182.867 3.13915 182.833 2.72435 182.766 2.32076C183.102 2.32076 183.337 2.28713 183.472 2.21986C183.629 2.13018 183.741 2.04049 183.808 1.9508C183.898 1.83869 183.965 1.7378 184.01 1.64811C184.077 1.55842 184.189 1.51358 184.346 1.51358C184.683 1.51358 185.019 1.60327 185.355 1.78264C185.714 1.93959 186.073 2.11896 186.432 2.32076C186.79 2.50013 187.16 2.67951 187.541 2.85888C187.923 3.01583 188.315 3.09431 188.719 3.09431C189.257 3.09431 189.728 2.9822 190.131 2.75798C190.557 2.51134 190.983 2.24228 191.409 1.9508C191.835 1.65932 192.295 1.40147 192.788 1.17725C193.304 0.930617 193.932 0.807297 194.672 0.807297C194.918 0.807297 195.131 0.773665 195.311 0.7064C195.512 0.616713 195.692 0.527027 195.849 0.43734C196.006 0.325232 196.163 0.224334 196.32 0.134648C196.477 0.044961 196.656 0.000117719 196.858 0.000117719C197.082 0.000117719 197.25 0.0898044 197.362 0.269178C197.497 0.426129 197.676 0.504605 197.9 0.504605C198.102 0.504605 198.293 0.459762 198.472 0.370075C198.674 0.257967 198.876 0.201913 199.077 0.201913C199.346 0.201913 199.84 0.347653 200.557 0.639135C201.297 0.930617 202.071 1.27815 202.878 1.68174C203.708 2.06291 204.481 2.44408 205.199 2.82525C205.916 3.20641 206.409 3.48669 206.678 3.66606C207.329 3.66606 207.968 3.57637 208.595 3.397C209.223 3.1952 209.851 2.9822 210.479 2.75798C211.107 2.51134 211.746 2.29834 212.396 2.11896C213.046 1.91717 213.708 1.81627 214.38 1.81627C214.941 1.81627 215.322 1.89475 215.524 2.0517C215.748 2.20865 215.905 2.38802 215.995 2.58982C216.107 2.79161 216.208 3.00462 216.297 3.22884C216.409 3.43063 216.656 3.57637 217.037 3.66606Z" fill="black"/>
</svg>
